<svg width="33" height="33" viewBox="0 0 33 33" fill="none" xmlns="http://www.w3.org/2000/svg">
<g clip-path="url(#clip0_4288_1561)">
<path fill-rule="evenodd" clip-rule="evenodd" d="M17.5312 5.54223V25.6434C19.4597 24.5502 21.9038 24.3997 24.1581 24.6265C26.5918 24.874 29.0462 25.5774 30.9375 26.2992V5.83304C29.1122 5.06991 26.4949 4.24698 23.9498 3.99123C21.2066 3.71485 18.8801 4.12116 17.5312 5.54223ZM16.5 3.67773C14.4684 1.93079 11.5232 1.67091 8.84194 1.93904C5.71931 2.2546 2.56781 3.32504 0.604313 4.2181C0.424151 4.30004 0.271374 4.43209 0.164218 4.59849C0.0570626 4.7649 5.48036e-05 4.95862 0 5.15654L0 27.844C4.77716e-05 28.0166 0.0433891 28.1864 0.126054 28.3378C0.208719 28.4893 0.328065 28.6176 0.47316 28.7109C0.618255 28.8043 0.784461 28.8598 0.956553 28.8723C1.12865 28.8848 1.30112 28.8539 1.45819 28.7825C3.27731 27.9575 6.20813 26.9654 9.04819 26.6787C11.9543 26.3859 14.3901 26.8582 15.6956 28.4875C15.7923 28.608 15.9147 28.7052 16.0539 28.772C16.1931 28.8388 16.3456 28.8735 16.5 28.8735C16.6544 28.8735 16.8069 28.8388 16.9461 28.772C17.0853 28.7052 17.2077 28.608 17.3044 28.4875C18.6099 26.8582 21.0458 26.3859 23.9498 26.6787C26.7919 26.9654 29.7248 27.9575 31.5418 28.7825C31.6989 28.8539 31.8714 28.8848 32.0434 28.8723C32.2155 28.8598 32.3817 28.8043 32.5268 28.7109C32.6719 28.6176 32.7913 28.4893 32.8739 28.3378C32.9566 28.1864 33 28.0166 33 27.844V5.15654C32.9999 4.95862 32.9429 4.7649 32.8358 4.59849C32.7286 4.43209 32.5758 4.30004 32.3957 4.2181C30.4322 3.32504 27.2807 2.2546 24.1581 1.93904C21.4768 1.66885 18.5316 1.93079 16.5 3.67773Z" fill="#A5DEFF"/>
</g>
<defs>
<clipPath id="clip0_4288_1561">
<rect width="33" height="33" fill="white"/>
</clipPath>
</defs>
</svg>
