<svg width="19" height="19" viewBox="0 0 19 19" fill="none" xmlns="http://www.w3.org/2000/svg">
<g clip-path="url(#clip0_4288_1576)">
<path fill-rule="evenodd" clip-rule="evenodd" d="M10.5026 1.9398C10.2105 0.94824 8.80687 0.94824 8.51475 1.9398L8.40312 2.31862C8.30924 2.6368 8.14538 2.92996 7.92353 3.17661C7.70168 3.42326 7.42746 3.61716 7.12097 3.74411C6.81447 3.87106 6.48346 3.92784 6.15218 3.91028C5.8209 3.89273 5.49774 3.8013 5.20637 3.64268L4.85962 3.45268C3.95237 2.95987 2.95962 3.95143 3.45362 4.85987L3.64243 5.20661C3.80105 5.49798 3.89249 5.82114 3.91004 6.15242C3.92759 6.4837 3.87081 6.81471 3.74387 7.12121C3.61692 7.4277 3.42302 7.70192 3.17636 7.92377C2.92971 8.14562 2.63656 8.30949 2.31837 8.40336L1.93956 8.51499C0.947996 8.80712 0.947996 10.2107 1.93956 10.5029L2.31837 10.6145C2.63672 10.7083 2.93004 10.8722 3.17681 11.0942C3.42359 11.3161 3.61757 11.5904 3.74453 11.8971C3.8715 12.2037 3.92823 12.5349 3.91056 12.8663C3.89289 13.1977 3.80128 13.521 3.64243 13.8124L3.45243 14.158C2.95962 15.0652 3.95118 16.058 4.85962 15.564L5.20637 15.3752C5.49782 15.2166 5.82105 15.1252 6.1524 15.1077C6.48375 15.0902 6.8148 15.1471 7.12132 15.2742C7.42783 15.4012 7.70203 15.5953 7.92382 15.8421C8.14561 16.0889 8.30938 16.3821 8.40312 16.7004L8.51475 17.0781C8.80687 18.0696 10.2105 18.0696 10.5026 17.0781L10.6142 16.6992C10.7081 16.3809 10.872 16.0876 11.0939 15.8408C11.3158 15.594 11.5902 15.4 11.8968 15.2731C12.2035 15.1461 12.5347 15.0894 12.8661 15.1071C13.1975 15.1247 13.5208 15.2163 13.8122 15.3752L14.1577 15.5652C15.065 16.058 16.0577 15.0664 15.5637 14.158L15.3749 13.8124C15.2161 13.5209 15.1245 13.1976 15.1069 12.8661C15.0894 12.5346 15.1462 12.2034 15.2733 11.8967C15.4004 11.5901 15.5945 11.3157 15.8414 11.0939C16.0883 10.872 16.3817 10.7082 16.7002 10.6145L17.0778 10.5029C18.0694 10.2107 18.0694 8.80712 17.0778 8.51499L16.699 8.40336C16.3808 8.30949 16.0877 8.14562 15.841 7.92377C15.5944 7.70192 15.4005 7.4277 15.2735 7.12121C15.1466 6.81471 15.0898 6.4837 15.1073 6.15242C15.1249 5.82114 15.2163 5.49798 15.3749 5.20661L15.5649 4.85987C16.0577 3.95262 15.0662 2.95987 14.1577 3.45387L13.8122 3.64268C13.5207 3.80174 13.1974 3.89354 12.8658 3.91132C12.5342 3.92911 12.2029 3.87243 11.8961 3.74545C11.5893 3.61847 11.3148 3.42441 11.0928 3.17751C10.8708 2.93061 10.7069 2.63713 10.6131 2.31862L10.5014 1.9398H10.5026ZM7.37593 1.60374C8.00175 -0.521885 11.0156 -0.521885 11.6414 1.60374L11.7531 1.98255C11.7968 2.13093 11.8731 2.26765 11.9765 2.38269C12.0799 2.49773 12.2078 2.58817 12.3507 2.64738C12.4936 2.70659 12.6479 2.73307 12.8024 2.72488C12.9569 2.71669 13.1075 2.67404 13.2434 2.60005L13.5901 2.41005C15.5376 1.3508 17.668 3.47999 16.6064 5.42749L16.4176 5.77424C16.3436 5.91008 16.3009 6.06076 16.2927 6.21522C16.2845 6.36969 16.311 6.52403 16.3702 6.66693C16.4294 6.80984 16.5199 6.93768 16.6349 7.04108C16.75 7.14449 16.8867 7.22085 17.0351 7.26455L17.4139 7.37618C19.5395 8.00199 19.5395 11.0159 17.4139 11.6417L17.0351 11.7533C16.8867 11.797 16.75 11.8734 16.6349 11.9768C16.5199 12.0802 16.4294 12.208 16.3702 12.3509C16.311 12.4938 16.2845 12.6482 16.2927 12.8026C16.3009 12.9571 16.3436 13.1078 16.4176 13.2436L16.6076 13.5904C17.668 15.5379 15.5364 17.6682 13.5901 16.6066L13.2434 16.4178C13.1075 16.3438 12.9569 16.3012 12.8024 16.293C12.6479 16.2848 12.4936 16.3113 12.3507 16.3705C12.2078 16.4297 12.0799 16.5201 11.9765 16.6352C11.8731 16.7502 11.7968 16.8869 11.7531 17.0353L11.6414 17.4141C11.0156 19.5397 8.00175 19.5397 7.37593 17.4141L7.26431 17.0353C7.2206 16.8869 7.14425 16.7502 7.04084 16.6352C6.93743 16.5201 6.80959 16.4297 6.66669 16.3705C6.52379 16.3113 6.36945 16.2848 6.21498 16.293C6.06051 16.3012 5.90984 16.3438 5.774 16.4178L5.42725 16.6078C3.47975 17.6682 1.35056 15.5367 2.411 13.5904L2.59981 13.2436C2.6738 13.1078 2.71645 12.9571 2.72464 12.8026C2.73282 12.6482 2.70634 12.4938 2.64713 12.3509C2.58792 12.208 2.49748 12.0802 2.38245 11.9768C2.26741 11.8734 2.13069 11.797 1.98231 11.7533L1.6035 11.6417C-0.522129 11.0159 -0.522129 8.00199 1.6035 7.37618L1.98231 7.26455C2.13069 7.22085 2.26741 7.14449 2.38245 7.04108C2.49748 6.93768 2.58792 6.80984 2.64713 6.66693C2.70634 6.52403 2.73282 6.36969 2.72464 6.21522C2.71645 6.06076 2.6738 5.91008 2.59981 5.77424L2.40981 5.42749C1.35056 3.47999 3.48093 1.3508 5.42725 2.41124L5.774 2.60005C5.90984 2.67404 6.06051 2.71669 6.21498 2.72488C6.36945 2.73307 6.52379 2.70659 6.66669 2.64738C6.80959 2.58817 6.93743 2.49773 7.04084 2.38269C7.14425 2.26765 7.2206 2.13093 7.26431 1.98255L7.37593 1.60374V1.60374Z" fill="white"/>
<path fill-rule="evenodd" clip-rule="evenodd" d="M9.49989 6.83276C8.79252 6.83276 8.11413 7.11376 7.61395 7.61395C7.11376 8.11413 6.83276 8.79252 6.83276 9.49989C6.83276 10.2073 7.11376 10.8856 7.61395 11.3858C8.11413 11.886 8.79252 12.167 9.49989 12.167C10.2073 12.167 10.8856 11.886 11.3858 11.3858C11.886 10.8856 12.167 10.2073 12.167 9.49989C12.167 8.79252 11.886 8.11413 11.3858 7.61395C10.8856 7.11376 10.2073 6.83276 9.49989 6.83276V6.83276ZM5.64526 9.49989C5.64526 8.99369 5.74497 8.49245 5.93868 8.02479C6.13239 7.55712 6.41632 7.13219 6.77426 6.77426C7.13219 6.41632 7.55712 6.13239 8.02479 5.93868C8.49245 5.74497 8.99369 5.64526 9.49989 5.64526C10.0061 5.64526 10.5073 5.74497 10.975 5.93868C11.4427 6.13239 11.8676 6.41632 12.2255 6.77426C12.5835 7.13219 12.8674 7.55712 13.0611 8.02479C13.2548 8.49245 13.3545 8.99369 13.3545 9.49989C13.3545 10.5222 12.9484 11.5026 12.2255 12.2255C11.5026 12.9484 10.5222 13.3545 9.49989 13.3545C8.47758 13.3545 7.49714 12.9484 6.77426 12.2255C6.05137 11.5026 5.64526 10.5222 5.64526 9.49989V9.49989Z" fill="white"/>
</g>
<defs>
<clipPath id="clip0_4288_1576">
<rect width="19" height="19" fill="white"/>
</clipPath>
</defs>
</svg>
