<svg width="42" height="25" viewBox="0 0 42 25" fill="none" xmlns="http://www.w3.org/2000/svg">
<path d="M2.87846 6.12416C2.25629 6.12416 1.72894 5.9888 1.29612 5.71871C0.863305 5.44862 0.538984 5.08246 0.323448 4.62087C0.107622 4.15929 0 3.64 0 3.0627C0 2.49071 0.109949 1.97236 0.330429 1.50827C0.550619 1.04356 0.877267 0.675853 1.31008 0.405449C1.74348 0.135358 2.26647 0 2.87846 0C3.50965 0 4.04078 0.135358 4.47127 0.405449C4.90176 0.675853 5.222 1.04232 5.4323 1.50453C5.64319 1.96612 5.74877 2.48572 5.74877 3.0627C5.74877 4.00678 5.53295 4.75311 5.10188 5.30203C4.67139 5.85001 3.93025 6.12416 2.87846 6.12416ZM2.87846 4.15679C3.2499 4.15679 3.51023 4.06135 3.65916 3.86986C3.80866 3.67774 3.88371 3.41388 3.88371 3.07767C3.88371 2.76329 3.7979 2.50505 3.62658 2.30295C3.45584 2.10085 3.20656 1.9998 2.87846 1.9998C2.55501 1.9998 2.30515 2.10085 2.12917 2.30295C1.95291 2.50505 1.86506 2.76329 1.86506 3.07767C1.86506 3.39798 1.95174 3.65778 2.12568 3.85738C2.29933 4.05699 2.55036 4.15679 2.87846 4.15679Z" fill="white"/>
<path d="M8.89774 6.06171C8.88756 5.9775 8.88262 5.91731 8.88262 5.88082C8.61792 5.9538 8.36603 5.9906 8.12635 5.9906C7.75927 5.9906 7.42884 5.91325 7.13506 5.75856C6.84187 5.60387 6.61062 5.38118 6.44163 5.08988C6.27234 4.79796 6.18799 4.45551 6.18799 4.06191C6.18799 3.62621 6.2674 3.24446 6.4265 2.91667C6.58532 2.58919 6.80929 2.3347 7.09783 2.15318C7.38696 1.97198 7.7203 1.88122 8.09726 1.88122C8.32676 1.88122 8.55917 1.91552 8.79419 1.98351C8.80873 1.14954 8.84335 0.546041 8.89774 0.17334L10.4533 0.291856C10.419 0.648651 10.3861 1.26556 10.3544 2.14195C10.3224 3.01772 10.3067 3.8124 10.3067 4.52599C10.3067 5.20902 10.3236 5.69712 10.3579 5.9906L8.89774 6.06171ZM8.80932 4.27399C8.79914 3.99142 8.79419 3.76843 8.79419 3.60531C8.60338 3.52641 8.43235 3.4868 8.2811 3.4868C8.11414 3.4868 7.98324 3.53296 7.88784 3.62527C7.79243 3.71697 7.74473 3.84921 7.74473 4.02199C7.74473 4.1377 7.79476 4.22846 7.89482 4.29395C7.99546 4.35976 8.12432 4.39251 8.2811 4.39251C8.45155 4.39251 8.62781 4.35321 8.80932 4.27399Z" fill="white"/>
<path d="M15.0855 5.71493C14.8357 5.87212 14.5666 5.99126 14.2781 6.07298C13.9895 6.15438 13.6981 6.19524 13.4043 6.19524C13.0032 6.19524 12.6288 6.11914 12.2815 5.96694C11.9339 5.81474 11.6486 5.58769 11.4252 5.28578C11.2024 4.98388 11.0767 4.61804 11.0482 4.18795C11.0427 4.13555 11.0401 4.05945 11.0401 3.95965C11.0401 3.51896 11.1256 3.10977 11.2972 2.73207C11.4686 2.35376 11.7231 2.05186 12.0605 1.82636C12.3985 1.60118 12.8022 1.48828 13.2717 1.48828C13.7074 1.48828 14.0759 1.58933 14.377 1.79143C14.6777 1.99353 14.9017 2.25863 15.0483 2.58611C15.1955 2.9139 15.2694 3.26165 15.2694 3.62905C15.2694 3.83365 15.2473 4.03045 15.203 4.21914L14.8656 4.49484H12.5456C12.6876 4.75776 12.9686 4.88907 13.3892 4.88907C13.7272 4.88907 14.1338 4.79737 14.6085 4.61336L15.0855 5.71493ZM14.0058 3.39327C13.9863 3.27787 13.9034 3.17807 13.7568 3.09386C13.6102 3.00996 13.4511 2.96786 13.2798 2.96786C13.1277 2.96786 12.9881 3.00497 12.861 3.07889C12.7336 3.15218 12.6358 3.26197 12.5678 3.40824L14.0058 3.39327Z" fill="white"/>
<path d="M15.7817 0.527631L17.4629 0.480225L17.442 2.76322L19.5339 1.46453L20.1727 2.93662L18.7998 3.72382L20.1727 4.9988L18.9394 6.05297L17.5665 4.43242L17.4117 4.5185L17.3978 6.05297H15.9364L15.7817 0.527631Z" fill="white"/>
<path d="M23.9301 6.12424C23.9208 6.08744 23.9074 6.04565 23.8906 5.99824C23.8734 5.95146 23.8548 5.89376 23.8347 5.82484C23.4531 5.95614 23.0788 6.02195 22.712 6.02195C22.1736 6.02195 21.7149 5.8816 21.3356 5.60153C20.9563 5.32052 20.725 4.89667 20.6421 4.33029C20.6218 4.21988 20.6119 4.09887 20.6119 3.96725C20.6119 3.54808 20.7134 3.17195 20.9167 2.83823C21.1197 2.50483 21.3879 2.24628 21.7207 2.06227C22.0534 1.87857 22.4007 1.79217 22.7632 1.80278C22.7539 1.73978 22.7451 1.68177 22.7376 1.62937C22.7306 1.57697 22.7242 1.53269 22.7189 1.49588L24.2175 1.12537C24.2757 1.65027 24.399 2.26312 24.5875 2.96423C24.776 3.66473 24.995 4.41886 25.2449 5.22727C25.2742 5.33705 25.3158 5.47896 25.3694 5.65268L23.9301 6.12424ZM23.3507 4.22799C23.2623 3.91299 23.1986 3.67377 23.1599 3.51066C23.0473 3.47916 22.9447 3.46325 22.8516 3.46325C22.6654 3.46325 22.5133 3.51066 22.3955 3.60547C22.2783 3.70028 22.2198 3.82379 22.2198 3.97599C22.2198 4.11259 22.2687 4.22019 22.3664 4.2991C22.4647 4.37738 22.5924 4.41637 22.7492 4.41637C22.9493 4.41637 23.1497 4.35368 23.3507 4.22799Z" fill="white"/>
<path d="M25.8821 0.527631L27.5633 0.480225L27.5424 2.76322L29.6343 1.46453L30.2731 2.93662L28.9002 3.72382L30.2731 4.9988L29.0398 6.05297L27.6669 4.43242L27.5121 4.5185L27.4982 6.05297H26.0368L25.8821 0.527631Z" fill="white"/>
<path d="M34.6845 5.71493C34.4346 5.87212 34.1656 5.99126 33.877 6.07298C33.5885 6.15438 33.297 6.19524 33.0032 6.19524C32.6021 6.19524 32.2278 6.11914 31.8805 5.96694C31.5329 5.81474 31.2475 5.58769 31.0242 5.28578C30.8013 4.98388 30.6757 4.61804 30.6472 4.18795C30.6417 4.13555 30.639 4.05945 30.639 3.95965C30.639 3.51896 30.7246 3.10977 30.8962 2.73207C31.0675 2.35376 31.322 2.05186 31.6594 1.82636C31.9974 1.60118 32.4011 1.48828 32.8706 1.48828C33.3063 1.48828 33.6749 1.58933 33.9759 1.79143C34.2767 1.99353 34.5006 2.25863 34.6472 2.58611C34.7944 2.9139 34.8683 3.26165 34.8683 3.62905C34.8683 3.83365 34.8462 4.03045 34.802 4.21914L34.4646 4.49484H32.1446C32.2865 4.75776 32.5675 4.88907 32.9881 4.88907C33.3261 4.88907 33.7327 4.79737 34.2074 4.61336L34.6845 5.71493ZM33.6048 3.39327C33.5853 3.27787 33.5024 3.17807 33.3558 3.09386C33.2092 3.00996 33.0501 2.96786 32.8787 2.96786C32.7266 2.96786 32.587 3.00497 32.4599 3.07889C32.3325 3.15218 32.2348 3.26197 32.1667 3.40824L33.6048 3.39327Z" fill="white"/>
<path d="M3.39038 16.4038C3.39038 15.7171 3.40929 14.8354 3.44739 13.7591C3.4852 12.6831 3.53029 12.0075 3.58236 11.7331L3.88835 11.244L5.4544 11.2827L6.28746 12.6862L6.99253 11.2902L8.42361 11.244L8.82152 11.8241C8.85468 12.053 8.88668 12.7043 8.91693 13.7778C8.94776 14.8516 8.96347 15.7139 8.96347 16.3652L8.95649 16.717L7.24151 16.7007C7.20341 16.4472 7.17461 15.7376 7.15541 14.5724L6.83546 15.3197L5.49047 15.3734L5.14142 14.5724C5.15073 15.01 5.15539 15.4142 5.15539 15.7851C5.15539 16.2077 5.1484 16.508 5.13444 16.6858L3.39038 16.717V16.4038Z" fill="white"/>
<path d="M12.8212 16.8917C12.8118 16.8568 12.7985 16.8159 12.7816 16.7694C12.7653 16.7236 12.7473 16.6678 12.7281 16.6023C12.3581 16.7295 11.9951 16.7931 11.6391 16.7931C11.1169 16.7931 10.6722 16.6572 10.3045 16.3852C9.93688 16.1126 9.71262 15.7015 9.63205 15.1526C9.61343 15.0453 9.60413 14.9281 9.60413 14.8008C9.60413 14.3941 9.70215 14.0295 9.89849 13.7067C10.0954 13.3833 10.3552 13.1326 10.678 12.9545C11.0006 12.7758 11.3377 12.6919 11.6891 12.7025C11.6798 12.641 11.6716 12.5849 11.6647 12.5341C11.6577 12.4835 11.6513 12.4402 11.646 12.4043L13.0981 12.0463C13.1554 12.5546 13.2752 13.1485 13.4576 13.8277C13.6405 14.5073 13.8532 15.2387 14.0952 16.0222C14.1237 16.1288 14.1641 16.2661 14.2162 16.4338L12.8212 16.8917ZM12.2592 15.0528C12.1731 14.7478 12.1109 14.5161 12.073 14.3579C11.9643 14.328 11.8651 14.313 11.7752 14.313C11.5943 14.313 11.4471 14.3589 11.3331 14.4503C11.219 14.542 11.162 14.6611 11.162 14.8083C11.162 14.9405 11.2092 15.045 11.304 15.1214C11.3994 15.1982 11.523 15.2362 11.6751 15.2362C11.8697 15.2362 12.0643 15.1751 12.2592 15.0528Z" fill="white"/>
<path d="M14.7917 15.2661C14.8871 15.287 15.0483 15.3279 15.2757 15.3884C15.3182 15.3983 15.4072 15.4202 15.5422 15.4532C15.6777 15.4866 15.7836 15.5031 15.8598 15.5031C15.9738 15.5031 16.0448 15.4551 16.0727 15.3584C16.0873 15.302 16.0602 15.2446 15.9913 15.1863C15.9221 15.1283 15.8022 15.0478 15.6318 14.9455C15.4229 14.8242 15.2472 14.7103 15.1047 14.6037C14.9628 14.4964 14.8383 14.3626 14.7312 14.202C14.6248 14.0416 14.5718 13.857 14.5718 13.6481C14.5718 13.5617 14.5811 13.4778 14.5998 13.396C14.671 13.0502 14.9034 12.7997 15.2967 12.645C15.6905 12.4897 16.1559 12.4117 16.6929 12.4117C17.0341 12.4117 17.3552 12.4401 17.6562 12.4966C17.9579 12.5524 18.1751 12.6185 18.3078 12.6949L18.0169 14.1446C17.95 14.124 17.8622 14.0934 17.7528 14.0535C17.7249 14.0429 17.6574 14.0186 17.5504 13.9811C17.4433 13.9431 17.3459 13.9138 17.2583 13.8938C17.1705 13.8732 17.0957 13.8626 17.0338 13.8626C16.9058 13.8626 16.8325 13.9085 16.8139 13.9999C16.799 14.0756 16.8284 14.148 16.9023 14.2169C16.9759 14.2862 17.1053 14.3813 17.2909 14.5026C17.4846 14.6299 17.6411 14.7421 17.7598 14.8394C17.8785 14.9361 17.9826 15.0559 18.0728 15.1987C18.1635 15.341 18.2089 15.5013 18.2089 15.679C18.2089 15.7657 18.199 15.8468 18.1798 15.9223C18.1036 16.2535 17.8593 16.4887 17.4468 16.6284C17.0341 16.7688 16.5431 16.8392 15.9738 16.8392C15.4991 16.8392 15.0721 16.8034 14.6928 16.732L14.7917 15.2661Z" fill="white"/>
<path d="M22.7354 16.6633C22.3273 16.8411 21.9119 16.9303 21.4893 16.9303C20.9337 16.9303 20.4878 16.7672 20.1513 16.4413C19.9424 16.2386 19.7929 15.9195 19.7022 15.4844C19.612 15.0497 19.5695 14.575 19.5742 14.061L18.8202 14.0535L18.6353 12.3743L19.7452 12.3431L19.7743 12.1672C19.84 11.7456 19.8944 11.4583 19.9372 11.3052L21.5533 11.405L21.5032 11.6408C21.4279 11.977 21.3758 12.1956 21.3473 12.297L22.7354 12.267L22.6074 14.0834L21.0413 14.0685C21.0413 14.2774 21.0626 14.4836 21.1053 14.6872C21.1478 14.8903 21.2095 15.0275 21.2903 15.0989C21.4183 15.2212 21.5652 15.2823 21.7313 15.2823C21.85 15.2823 21.971 15.2546 22.0943 15.1987C22.2176 15.1423 22.327 15.0759 22.4224 14.9991L22.7354 16.6633Z" fill="white"/>
<path d="M27.012 16.4949C26.77 16.6477 26.5088 16.7634 26.229 16.8417C25.9489 16.9206 25.6665 16.9602 25.382 16.9602C24.9934 16.9602 24.6304 16.8866 24.293 16.7394C23.9561 16.5922 23.6798 16.3723 23.4634 16.0795C23.2476 15.7869 23.1254 15.4317 23.0969 15.0141C23.0923 14.9635 23.0899 14.8899 23.0899 14.7932C23.0899 14.366 23.1728 13.9692 23.3389 13.6031C23.5056 13.2363 23.7525 12.9438 24.0801 12.7248C24.4073 12.5062 24.7985 12.3967 25.254 12.3967C25.6766 12.3967 26.0338 12.495 26.3256 12.6911C26.617 12.8867 26.834 13.1437 26.976 13.4621C27.1185 13.7799 27.1901 14.1168 27.1901 14.4726C27.1901 14.6716 27.1685 14.8625 27.1261 15.0452L26.7991 15.3122H24.5501C24.6874 15.5667 24.9599 15.694 25.368 15.694C25.6953 15.694 26.0894 15.6051 26.5501 15.427L27.012 16.4949ZM25.9661 14.2431C25.9475 14.1317 25.8666 14.0354 25.7241 13.9537C25.5812 13.8723 25.4268 13.8314 25.261 13.8314C25.1144 13.8314 24.9794 13.8673 24.8561 13.9387C24.7328 14.0095 24.6377 14.1165 24.571 14.2593L25.9661 14.2431Z" fill="white"/>
<path d="M27.8662 16.4875C27.8662 16.0094 27.8528 15.3557 27.8266 14.5264C27.801 13.6974 27.7784 13.0637 27.7592 12.6252L29.3822 12.5952C29.4008 12.7533 29.4197 12.9951 29.4392 13.32L29.4532 13.5421C29.747 13.3484 30.0698 13.2034 30.4212 13.1067C30.7726 13.0103 31.1309 12.962 31.4963 12.962L31.6173 14.7248C31.2991 14.7347 31.0192 14.7628 30.7772 14.8083C30.5352 14.8542 30.2979 14.9449 30.0652 15.0803C29.8331 15.215 29.6268 15.4122 29.4462 15.6716C29.4221 16.1501 29.4008 16.5134 29.3822 16.762L27.8662 16.8081V16.4875Z" fill="white"/>
<path d="M41.988 15.6749C42.0926 15.4802 41.4906 13.5732 40.9619 11.9889L40.9799 11.9684C41.1291 11.7753 41.368 11.3685 41.3516 11.2799C41.3351 11.1913 41.1814 11.0821 41.1186 11.033C41.056 10.9839 40.9035 10.8558 40.8365 10.8558C40.7571 10.8921 40.6895 10.945 40.6331 11.014C40.4568 10.4966 40.3149 10.093 40.2538 9.91887L41.5981 8.07648C41.7306 7.90141 41.8302 7.70706 41.8969 7.49406C41.8969 7.49406 42.1061 6.88802 41.8373 6.65542C41.658 6.49715 41.3742 6.6206 41.2052 6.71855C40.9608 6.84417 40.7586 7.02359 40.5987 7.25681L39.2544 9.09889L38.1581 8.98197C38.2087 8.90765 38.2404 8.82525 38.2536 8.73507C38.2416 8.66386 38.0835 8.53544 38.0206 8.48818C37.9577 8.4406 37.804 8.3044 37.7368 8.30907C37.6695 8.31404 37.3424 8.67008 37.2005 8.86319L37.1855 8.88682C35.6067 8.73818 33.7141 8.59577 33.5601 8.75249C33.296 9.02146 32.9957 9.26369 33.0286 9.38527C33.0612 9.50717 33.3063 9.32837 33.4167 9.34578C33.4467 9.34578 33.6888 9.4344 34.0247 9.55163C33.953 9.65922 33.8919 9.76992 33.9292 9.80008C33.9665 9.83025 34.0785 9.71613 34.1622 9.60076L34.9897 9.89182C34.915 10.001 34.851 10.1151 34.8883 10.1468C34.9256 10.1782 35.0376 10.0582 35.1257 9.94095L35.9308 10.2273C35.8665 10.3271 35.8159 10.4235 35.8503 10.4522C35.8844 10.4808 35.9831 10.3825 36.0654 10.2749L36.5135 10.4332L36.7733 10.6453C36.7077 10.7435 36.6598 10.8399 36.6942 10.867C36.7286 10.8937 36.8032 10.8225 36.8764 10.7323L37.2243 11.0172C37.1602 11.1154 37.1123 11.2103 37.1467 11.2389C37.1811 11.2672 37.2557 11.1928 37.3289 11.1027L37.6157 11.3384L36.7495 12.5222C36.5611 12.7787 35.8306 13.9706 35.4378 14.6273C35.1901 14.7728 34.8404 14.9296 34.5595 14.8916C34.0426 14.8235 33.3107 14.7476 33.1003 15.0499C33.0268 15.1637 32.9472 15.2725 32.8611 15.3758C32.8611 15.3758 34.3027 15.8997 34.6538 16.1056C34.5371 16.349 34.449 16.5422 34.4208 16.6102C34.3473 16.7875 34.3849 16.8428 34.3849 16.8428C34.3849 16.8428 34.4446 16.8683 34.5894 16.748C34.6447 16.702 34.7987 16.5645 34.9911 16.3839C35.2676 16.6911 36.1057 18.0409 36.1057 18.0409C36.1791 17.9268 36.2587 17.8177 36.3445 17.7135C36.5702 17.4221 36.3178 16.6911 36.1265 16.1768C36.0204 15.8919 36.0772 15.5008 36.1488 15.2113C36.6507 14.6432 37.559 13.5968 37.7473 13.339C37.8143 13.2489 38.1552 12.7803 38.6121 12.1568L38.9004 12.3925C38.8348 12.4892 38.7869 12.5856 38.8213 12.6126C38.8557 12.6394 38.9303 12.5682 39.0035 12.478L39.3514 12.7628C39.2873 12.8611 39.2394 12.9559 39.2738 12.9845C39.3082 13.0128 39.3828 12.9385 39.456 12.8483L39.7146 13.0716L39.9714 13.4877C39.8938 13.5984 39.8221 13.7203 39.8639 13.752C39.9056 13.7837 39.9743 13.7063 40.049 13.6142L40.5106 14.3677C40.4257 14.488 40.339 14.6289 40.3822 14.6637C40.4257 14.6985 40.5091 14.6003 40.5899 14.4958L41.0633 15.2728C40.9781 15.3901 40.8961 15.5278 40.9378 15.5627C40.9799 15.5975 41.0618 15.5023 41.1412 15.4044C41.3322 15.7209 41.4682 15.9489 41.4803 15.9772C41.5249 16.0866 41.4203 16.3823 41.5414 16.3857C41.6624 16.3889 41.8088 16.0154 41.988 15.6749Z" fill="white"/>
<mask id="mask0_4288_1553" style="mask-type:luminance" maskUnits="userSpaceOnUse" x="10" y="17" width="25" height="8">
<path d="M10.2862 17.1429H34.4122V24.6207H10.2862V17.1429Z" fill="white"/>
</mask>
<g mask="url(#mask0_4288_1553)">
<path d="M20.8079 24.6048C20.6482 24.6048 20.4853 24.6048 20.3271 24.6048L20.3404 24.0792C20.4958 24.0792 20.6525 24.0792 20.8079 24.0792H20.9202V24.6063L20.8079 24.6048ZM21.5191 24.5888L21.4984 24.0636C21.6907 24.0555 21.8858 24.0427 22.0764 24.0268L22.115 24.5508C21.9181 24.5667 21.7171 24.5795 21.5191 24.5888ZM19.7314 24.5683C19.5333 24.5555 19.3334 24.538 19.1397 24.5174L19.1871 23.9953C19.378 24.0144 19.5717 24.0318 19.7654 24.0443L19.7314 24.5683ZM22.7078 24.4937L22.6532 23.9713L22.949 23.9317L23.2209 23.8905L23.2948 24.4095L23.0138 24.4526L22.7078 24.4937ZM18.544 24.4491C18.3489 24.4207 18.1505 24.3889 17.9524 24.354L18.0324 23.8366C18.2232 23.87 18.4152 23.8999 18.6045 23.927L18.544 24.4491ZM23.8879 24.3032L23.7992 23.7873C23.9868 23.7493 24.1791 23.7062 24.3655 23.6619L24.4734 24.1747C24.2797 24.219 24.0831 24.262 23.8879 24.3V24.3032ZM17.3683 24.2395C17.1746 24.1968 16.978 24.1506 16.7857 24.1032L16.8983 23.5905C17.0859 23.6379 17.2767 23.6825 17.4646 23.7237L17.3683 24.2395ZM25.0575 24.0253L24.9333 23.516C25.1195 23.4636 25.3074 23.4077 25.4921 23.3572L25.6311 23.8603C25.4374 23.9096 25.2437 23.9682 25.0531 24.0175L25.0575 24.0253ZM16.2136 23.9461C16.0213 23.8905 15.829 23.83 15.64 23.7667L15.7877 23.2649C15.971 23.3254 16.1589 23.384 16.3436 23.438L16.2136 23.9461ZM26.1989 23.6604L26.0511 23.1601C26.2329 23.0952 26.4179 23.0254 26.5968 22.9524L26.7699 23.4461C26.5715 23.5175 26.3824 23.5889 26.1945 23.6572L26.1989 23.6604ZM15.0766 23.5649C14.8901 23.4966 14.7007 23.4221 14.516 23.346L14.692 22.8554C14.8709 22.9284 15.0542 23.0014 15.2362 23.0681L15.0766 23.5649ZM27.3199 23.2078L27.132 22.7222C27.3094 22.6427 27.4883 22.5635 27.6643 22.4746L27.8656 22.9508C27.6791 23.0413 27.4973 23.127 27.3123 23.2078H27.3199ZM13.9631 23.1077C13.781 23.0238 13.5978 22.938 13.4189 22.8476L13.6245 22.3713C13.7988 22.4571 13.9779 22.5429 14.1554 22.6221L13.9631 23.1077ZM28.4051 22.6792L28.1879 22.2029C28.3595 22.1125 28.5322 22.0158 28.7024 21.9172L28.9345 22.3807C28.7527 22.4871 28.5738 22.5887 28.3979 22.6792H28.4051ZM12.879 22.5681C12.7033 22.473 12.5256 22.3729 12.3514 22.2697L12.5879 21.8093C12.7566 21.9094 12.9293 22.0061 13.101 22.0997L12.879 22.5681ZM29.452 22.0729L29.205 21.6188C29.3708 21.5155 29.5378 21.4076 29.7018 21.3013L29.9622 21.7476C29.7891 21.8555 29.6178 21.9665 29.4476 22.0729H29.452ZM11.8307 21.9537C11.6591 21.8458 11.4892 21.7317 11.3237 21.6172L11.5899 21.1743C11.751 21.2872 11.9165 21.3967 12.0806 21.5031L11.8307 21.9537ZM30.4619 21.3967L30.187 20.9601C30.3467 20.8459 30.5064 20.7252 30.6617 20.6045L30.95 21.0299C30.7845 21.1506 30.6201 21.2745 30.4546 21.3936L30.4619 21.3967ZM10.8284 21.257C10.6655 21.1347 10.5029 21.0094 10.3447 20.8809L10.6405 20.4617C10.7882 20.5855 10.9526 20.7078 11.1091 20.825L10.8284 21.257ZM31.4218 20.641L31.1259 20.2268C31.2737 20.0996 31.4305 19.968 31.5785 19.836L31.8918 20.2393C31.7336 20.3759 31.5768 20.511 31.4218 20.641ZM32.3368 19.822L32.0102 19.43C32.1579 19.2918 32.297 19.149 32.4346 19.0061L32.7746 19.3869C32.6312 19.5329 32.4849 19.6792 32.3368 19.822ZM33.1975 18.9378L32.8456 18.571C32.9802 18.4235 33.1132 18.271 33.242 18.1185L33.6056 18.4616C33.4727 18.6203 33.3351 18.7791 33.1975 18.9378ZM34.0035 17.9853L33.6292 17.6457C33.7534 17.4869 33.8761 17.3282 33.9945 17.1694L34.3805 17.4869C34.2519 17.6566 34.1263 17.8266 34.0035 17.9853Z" fill="white"/>
</g>
</svg>
