<svg width="33" height="33" viewBox="0 0 33 33" fill="none" xmlns="http://www.w3.org/2000/svg">
<g clip-path="url(#clip0_4288_1567)">
<path d="M27.7763 25.5131C26.3119 23.1536 23.0882 20.625 16.4985 20.625C9.90883 20.625 6.6872 23.1516 5.22076 25.5131C6.57187 27.2069 8.28753 28.5743 10.2401 29.5134C12.1926 30.4526 14.3318 30.9393 16.4985 30.9375C18.6652 30.9393 20.8044 30.4526 22.7569 29.5134C24.7095 28.5743 26.4252 27.2069 27.7763 25.5131V25.5131Z" fill="#A5DEFF"/>
<path fill-rule="evenodd" clip-rule="evenodd" d="M16.5 18.5625C18.141 18.5625 19.7148 17.9106 20.8752 16.7502C22.0356 15.5898 22.6875 14.016 22.6875 12.375C22.6875 10.734 22.0356 9.16016 20.8752 7.99978C19.7148 6.8394 18.141 6.1875 16.5 6.1875C14.859 6.1875 13.2852 6.8394 12.1248 7.99978C10.9644 9.16016 10.3125 10.734 10.3125 12.375C10.3125 14.016 10.9644 15.5898 12.1248 16.7502C13.2852 17.9106 14.859 18.5625 16.5 18.5625V18.5625Z" fill="#A5DEFF"/>
<path fill-rule="evenodd" clip-rule="evenodd" d="M16.5 2.0625C12.6709 2.0625 8.9987 3.58359 6.29115 6.29115C3.58359 8.9987 2.0625 12.6709 2.0625 16.5C2.0625 20.3291 3.58359 24.0013 6.29115 26.7089C8.9987 29.4164 12.6709 30.9375 16.5 30.9375C20.3291 30.9375 24.0013 29.4164 26.7089 26.7089C29.4164 24.0013 30.9375 20.3291 30.9375 16.5C30.9375 12.6709 29.4164 8.9987 26.7089 6.29115C24.0013 3.58359 20.3291 2.0625 16.5 2.0625V2.0625ZM0 16.5C0 12.1239 1.73839 7.92709 4.83274 4.83274C7.92709 1.73839 12.1239 0 16.5 0C20.8761 0 25.0729 1.73839 28.1673 4.83274C31.2616 7.92709 33 12.1239 33 16.5C33 20.8761 31.2616 25.0729 28.1673 28.1673C25.0729 31.2616 20.8761 33 16.5 33C12.1239 33 7.92709 31.2616 4.83274 28.1673C1.73839 25.0729 0 20.8761 0 16.5V16.5Z" fill="#A5DEFF"/>
</g>
<defs>
<clipPath id="clip0_4288_1567">
<rect width="33" height="33" fill="white"/>
</clipPath>
</defs>
</svg>
